<svg xmlns="http://www.w3.org/2000/svg" viewBox="0 0 309.87 49.88"><title>logo</title><g data-name="Layer 2"><path d="M18.05 13.84a3.38 3.38 0 1 0 6.74-.13c0-3.11-3.11-6.42-8.58-6.42S5.47 10.79 5.47 18.48v5H0v.64h5.47v25h5.78v-25h7.12v-.62h-7.12v-7.56c0-4.58 1.46-8.27 5.28-8.27a4.14 4.14 0 0 1 4.06 2.8 3.37 3.37 0 0 0-2.54 3.37zM139.51 22.65c-6.8 0-13.73 4.7-13.73 13.54s6.93 13.54 13.73 13.54 13.73-4.64 13.73-13.54-6.99-13.54-13.73-13.54zm0 26.57c-5.28 0-7.44-5.4-7.44-13s2.16-13 7.44-13 7.37 5.34 7.37 13-2.16 13-7.37 13zM251.59 48.08c-2.61 0-3.75-2-3.75-5.15V24h8v-.63h-8v-7.71l-5.85.95v6.74h-14.34v-7.69l-5.85.95v6.74H217V24h4.77v18.42c0 4.77 2.86 7.24 7.06 7.24 3.76 0 6.09-2.1 7.92-4.26l-.32-.25c-1.28 1.47-3 2.93-5.06 2.93-2.61 0-3.75-2-3.75-5.15V24H242v18.42c0 4.77 2.86 7.24 7 7.24 3.77 0 6.1-2.1 7.93-4.26l-.32-.25c-1.24 1.47-2.91 2.93-5.02 2.93zM57 27.89c0-2.36 1.85-4.71 5.4-4.71 4.69 0 7.06 4.16 8.46 7.18l.7-.15-.44-7.21c-3 .64-5.27-.19-8.77-.19-6.67 0-9.79 3.12-9.79 7.44 0 9.72 15.58 7.12 15.58 14.3 0 2.35-1.78 5-6 5-5.43 0-7.64-4.17-9.19-7.8l-.73.15.38 6.89a50.27 50.27 0 0 0 9.4 1.09c7.18 0 10.81-3.11 10.81-7.75C72.78 32.46 57 34.88 57 27.89zM102.7 44.86V31.07c0-5.85-3.43-8.27-7.31-8.27-4.57 0-8.13 3.37-10.23 5.53V6.66L75.6 7.8v.54c2.65.17 3.71 1.09 3.71 3.91v36.93h5.85V29c1.71-1.72 4-3.82 7.12-3.82s4.64 2 4.64 5.6v18.4h9.49v-.48c-2.64-.15-3.71-1.02-3.71-3.84zM115 17.59a3.66 3.66 0 1 0-3.87-3.69 3.69 3.69 0 0 0 3.87 3.69zM118.34 44.79v-22L108.78 24v.54c2.65.15 3.71 1 3.71 3.84v20.74h9.56v-.48c-2.65-.16-3.71-1.02-3.71-3.85zM45.9 48.42c-.89 0-1.84-.38-1.84-2.35V31.89c0-6.61-5.79-9.09-11.38-9.09-6.36 0-10.75 3.18-10.75 6.68a3.63 3.63 0 0 0 3.44 3.81 3.42 3.42 0 0 0 3.43-3.43 3.5 3.5 0 0 0-2.42-3.31 6.6 6.6 0 0 1 6.11-3.3c4.45 0 5.72 2.92 5.72 7.12v6.29A24.17 24.17 0 0 0 31 35.51c-5.59 0-10.23 2.29-10.23 7.25 0 4.32 3.43 7.12 8.65 7.12a10.71 10.71 0 0 0 9-4.45c.44 2.73 2.54 4.32 5.4 4.32 3.16 0 5.12-2 6.45-4.17l-.42-.18c-.77 1.29-2.18 3.02-3.95 3.02zm-7.69-3.62c-1.53 2-3.63 3.87-6.42 3.87-3.05 0-5-2.22-5-6.1 0-4.45 2.54-6.29 6.23-6.29a18.42 18.42 0 0 1 5.15.89zM215.22 34.54c-.06-7.95-5.59-11.89-11.88-11.89-7.25 0-13.1 5.28-13.1 13.35 0 7.18 4.51 13.73 13 13.73a12.83 12.83 0 0 0 11.47-6.65l-.44-.19a10.74 10.74 0 0 1-9.06 5.57c-6 0-9.09-5.41-8.83-13.92zm-11.95-11.45c5 0 5.72 7.19 5.79 10.94h-12.59c.38-5.72 2.67-10.94 6.8-10.94zM283.46 34.54c-.06-7.95-5.59-11.89-11.88-11.89-7.25 0-13.1 5.28-13.1 13.35 0 7.18 4.52 13.73 13 13.73A12.83 12.83 0 0 0 283 43.08l-.44-.19a10.74 10.74 0 0 1-9.06 5.57c-6 0-9.08-5.41-8.83-13.92zm-11.95-11.45c5 0 5.73 7.19 5.79 10.94h-12.59c.38-5.72 2.67-10.94 6.8-10.94zM183.75 44.71v-13.8c0-5.84-3.49-8.26-7.37-8.26-4.58 0-8.2 3.43-10.3 5.59v-5.53l-9.43 1.15v.54c2.64.16 3.71 1 3.71 3.84V49h5.78V28.82c1.72-1.72 4-3.82 7.19-3.82 3 0 4.57 2 4.57 5.6V49h9.56v-.48c-2.65-.13-3.71-.99-3.71-3.81zM298 0a11.84 11.84 0 1 0 11.84 11.84A11.85 11.85 0 0 0 298 0zm0 22.68a10.84 10.84 0 1 1 10.84-10.84A10.85 10.85 0 0 1 298 22.68z"/><path d="M300 3.05a4.32 4.32 0 0 0-4.51 4.7v1.9h-2.29v.67h2.29v10.31H298V10.32h3v-.67h-3v-3c0-1.92.61-3.47 2.21-3.47a1.74 1.74 0 0 1 1.71 1.17 1.42 1.42 0 0 0-1.07 1.42 1.42 1.42 0 1 0 2.83 0c-.04-1.33-1.35-2.72-3.68-2.72z"/></g></svg>